<svg width="467" height="467" viewBox="0 0 467 467" fill="none" xmlns="http://www.w3.org/2000/svg">
<path fill-rule="evenodd" clip-rule="evenodd" d="M233.332 338.33C291.32 338.33 338.332 291.318 338.332 233.33C338.332 175.342 291.32 128.33 233.332 128.33C175.344 128.33 128.332 175.342 128.332 233.33C128.332 291.318 175.344 338.33 233.332 338.33ZM210 0H256.664V93.332H210V0ZM210 373.33H256.664V466.662H210V373.33ZM373.33 256.66V209.996H466.662V256.66H373.33ZM0 256.66V209.996H93.332V256.66H0ZM51.84 84.84L84.84 51.84L150.836 117.84L117.84 150.836L51.84 84.84ZM315.83 348.82L348.826 315.824L414.826 381.82L381.826 414.82L315.83 348.82ZM348.826 150.83L315.83 117.834L381.826 51.834L414.826 84.834L348.826 150.83ZM84.846 414.82L51.846 381.82L117.846 315.824L150.842 348.82L84.846 414.82Z" fill="#F5F5F5"/>
</svg>
